<svg width="50" height="50" viewBox="0 0 50 50" fill="none" xmlns="http://www.w3.org/2000/svg">
<path d="M9.22227 42.5016L5.71289 3.125H44.2879L40.7738 42.4953L24.977 46.875L9.22227 42.5016Z" fill="#1572B6"/>
<path d="M25 43.5282L37.7656 39.9891L40.7687 6.34534H25V43.5282Z" fill="#33A9DC"/>
<path d="M25 20.6109H31.3906L31.8312 15.6656H25V10.8359H37.1094L36.9938 12.1312L35.8078 25.4406H25V20.6109V20.6109Z" fill="white"/>
<path d="M25.0297 33.1532L25.0078 33.1594L19.6297 31.7063L19.2859 27.8547H14.4375L15.1141 35.4375L25.0062 38.1844L25.0297 38.1782V33.1532V33.1532Z" fill="#EBEBEB"/>
<path d="M30.9789 25.236L30.3977 31.7032L25.0117 33.1563V38.1813L34.9117 35.4375L34.9852 34.6219L35.8242 25.236H30.9789V25.236Z" fill="white"/>
<path d="M25.0164 10.8359V15.6656H13.3508L13.2539 14.5797L13.0336 12.1312L12.918 10.8359H25.0164V10.8359ZM24.9992 20.6109V25.4406H19.6883L19.5914 24.3547L19.3727 21.9063L19.257 20.6109H24.9992V20.6109Z" fill="#EBEBEB"/>
</svg>
