<svg width="51" height="50" viewBox="0 0 51 50" fill="none" xmlns="http://www.w3.org/2000/svg">
<g clip-path="url(#clip0_4746_279109)">
<path d="M50.0277 22.7725L28.1973 0.943164C26.9408 -0.314063 24.9018 -0.314063 23.6437 0.943164L19.1105 5.47637L24.8611 11.227C26.1975 10.7754 27.7299 11.0783 28.7951 12.1436C29.8654 13.2156 30.1662 14.7611 29.7037 16.1018L35.2457 21.6439C36.5865 21.182 38.1336 21.4809 39.2045 22.5535C40.7012 24.0496 40.7012 26.4744 39.2045 27.9715C37.7074 29.4688 35.2826 29.4688 33.7848 27.9715C32.659 26.8445 32.3809 25.1912 32.9508 23.8043L27.7824 18.6359L27.7818 32.2369C28.1565 32.4222 28.4987 32.6669 28.7951 32.9615C30.2918 34.4576 30.2918 36.8826 28.7951 38.3809C27.298 39.8773 24.8721 39.8773 23.3771 38.3809C21.8805 36.8826 21.8805 34.4578 23.3771 32.9617C23.7358 32.6029 24.1621 32.3187 24.6312 32.1256V18.3979C24.1614 18.206 23.7349 17.9217 23.3771 17.5617C22.2432 16.4293 21.9705 14.7654 22.5516 13.373L16.8828 7.70371L1.91406 22.6715C0.65625 23.9299 0.65625 25.9691 1.91406 27.2266L23.7449 49.0563C25.0018 50.3137 27.0404 50.3137 28.2988 49.0563L50.0275 27.3279C51.285 26.0701 51.285 24.0297 50.0275 22.7725" fill="#DE4C36"/>
</g>
<defs>
<clipPath id="clip0_4746_279109">
<rect width="50" height="50" fill="white" transform="translate(0.970703)"/>
</clipPath>
</defs>
</svg>
