<svg width="50" height="50" viewBox="0 0 50 50" fill="none" xmlns="http://www.w3.org/2000/svg">
<path d="M9.22187 42.5016L5.71094 3.125H44.2891L40.7734 42.4953L24.9766 46.875L9.22187 42.5016Z" fill="#E44F26"/>
<path d="M25 43.5282L37.7656 39.9891L40.7687 6.34534H25V43.5282Z" fill="#F1662A"/>
<path d="M25 20.9485H18.6094L18.1688 16.0031H25V11.1735H12.8906L13.0063 12.4703L14.1922 25.7781H25V20.9485V20.9485ZM25 33.4906L24.9781 33.4969L19.6 32.0453L19.2563 28.1938H14.4078L15.0844 35.775L24.9781 38.5219L25 38.5157V33.4906Z" fill="#EBEBEB"/>
<path d="M24.9824 20.9485V25.7781H30.9293L30.3699 32.0422L24.9824 33.4953V38.5203L34.884 35.775L34.9559 34.9594L36.0902 22.2453L36.209 20.9485H24.9824V20.9485ZM24.9824 11.1735V16.0031H36.648L36.7449 14.9188L36.9652 12.4703L37.0809 11.1735H24.9824V11.1735Z" fill="white"/>
</svg>
