<svg width="51" height="50" viewBox="0 0 51 50" fill="none" xmlns="http://www.w3.org/2000/svg">
<g clip-path="url(#clip0_4746_279092)">
<path d="M0.669922 0H50.6699V50H0.669922V0Z" fill="#F7DF1E"/>
<path d="M13.8166 41.7836L17.6428 39.468C18.3811 40.7768 19.0525 41.8842 20.6633 41.8842C22.2072 41.8842 23.1809 41.2803 23.1809 38.9311V22.9549H27.8795V38.9975C27.8795 43.8641 25.0268 46.0793 20.8646 46.0793C17.1059 46.0793 14.924 44.1326 13.8164 41.7832M30.4316 41.2801L34.2574 39.0651C35.2646 40.7098 36.5736 41.918 38.8893 41.918C40.8363 41.918 42.0777 40.9446 42.0777 39.602C42.0777 37.991 40.8023 37.4203 38.6543 36.4809L37.4799 35.977C34.0898 34.5342 31.8412 32.7217 31.8412 28.8955C31.8412 25.3713 34.5262 22.6862 38.7217 22.6862C41.7088 22.6862 43.8568 23.7268 45.4006 26.4453L41.742 28.7949C40.9363 27.3518 40.0641 26.7813 38.7215 26.7813C37.3453 26.7813 36.4727 27.6539 36.4727 28.7949C36.4727 30.2045 37.3453 30.7754 39.359 31.6481L40.5336 32.1514C44.5277 33.8633 46.7764 35.6084 46.7764 39.535C46.7764 43.7643 43.4537 46.0799 38.9898 46.0799C34.6268 46.0799 31.8074 43.999 30.4314 41.2803" fill="black"/>
</g>
<defs>
<clipPath id="clip0_4746_279092">
<rect width="50" height="50" fill="white" transform="translate(0.669922)"/>
</clipPath>
</defs>
</svg>
