<svg width="38" height="50" viewBox="0 0 38 50" fill="none" xmlns="http://www.w3.org/2000/svg">
<g clip-path="url(#clip0_4746_279100)">
<path d="M12.9036 38.6522C12.9036 38.6522 10.9964 39.7613 14.261 40.1366C18.216 40.5877 20.2373 40.5231 24.5958 39.6981C24.5958 39.6981 25.7417 40.4166 27.3419 41.039C17.5715 45.2265 5.22932 40.7964 12.9036 38.6522M11.7097 33.1877C11.7097 33.1877 9.57051 34.7713 12.8376 35.1091C17.0624 35.545 20.3988 35.5807 26.1722 34.469C26.1722 34.469 26.9708 35.2785 28.2264 35.7213C16.4133 39.1756 3.25562 35.9937 11.7097 33.1877" fill="#5382A1"/>
<path d="M21.7746 23.9183C24.1821 26.69 21.1421 29.1842 21.1421 29.1842C21.1421 29.1842 27.2549 26.0286 24.4475 22.0769C21.8256 18.3919 19.8147 16.5607 30.7001 10.2477C30.7001 10.2477 13.6137 14.515 21.7746 23.9182" fill="#E76F00"/>
<path d="M34.6973 42.6939C34.6973 42.6939 36.1087 43.8568 33.1428 44.7565C27.5032 46.465 9.66996 46.9809 4.71591 44.8246C2.93513 44.05 6.27472 42.9749 7.32516 42.7491C8.42068 42.5116 9.04683 42.5559 9.04683 42.5559C7.06634 41.1607 -3.75418 45.2954 3.55059 46.4793C23.4715 49.71 39.8645 45.0247 34.6973 42.6939ZM13.821 27.526C13.821 27.526 4.75001 29.6806 10.6088 30.4629C13.0825 30.7941 18.0139 30.7192 22.6074 30.3342C26.3614 30.0178 30.1309 29.3444 30.1309 29.3444C30.1309 29.3444 28.8072 29.9113 27.8496 30.5652C18.638 32.9879 0.842933 31.8608 5.96591 29.3827C10.2984 27.2884 13.8211 27.526 13.8211 27.526M30.0935 36.6217C39.4577 31.7558 35.128 27.0798 32.1061 27.7098C31.3653 27.8639 31.0351 27.9974 31.0351 27.9974C31.0351 27.9974 31.3101 27.5668 31.8353 27.3803C37.8136 25.2785 42.4114 33.5793 29.9054 36.8669C29.9054 36.867 30.0503 36.7376 30.0935 36.6217Z" fill="#5382A1"/>
<path d="M24.4474 0.0536113C24.4474 0.0536113 29.6334 5.24147 19.5288 13.2185C11.426 19.6176 17.6811 23.2662 19.5255 27.4348C14.7957 23.1675 11.3246 19.4108 13.6534 15.9146C17.0711 10.7821 26.5398 8.29378 24.4474 0.0534668" fill="#E76F00"/>
<path d="M14.7398 49.8071C23.7281 50.3826 37.5306 49.4879 37.8574 45.2349C37.8574 45.2349 37.2291 46.8473 30.4291 48.1276C22.7574 49.5713 13.2956 49.4028 7.68359 48.4775C7.68374 48.4775 8.83244 49.4284 14.74 49.8071" fill="#5382A1"/>
</g>
<defs>
<clipPath id="clip0_4746_279100">
<rect width="37" height="50" fill="white" transform="translate(0.970703)"/>
</clipPath>
</defs>
</svg>
