<svg width="22" height="23" viewBox="0 0 22 23" fill="none" xmlns="http://www.w3.org/2000/svg">
<path d="M20.3594 0.157715H1.60449C0.745117 0.157715 0.046875 0.865723 0.046875 1.73486V20.4556C0.046875 21.3247 0.745117 22.0327 1.60449 22.0327H20.3594C21.2188 22.0327 21.9219 21.3247 21.9219 20.4556V1.73486C21.9219 0.865723 21.2188 0.157715 20.3594 0.157715ZM6.6582 18.9077H3.41602V8.46826H6.66309V18.9077H6.6582ZM5.03711 7.04248C3.99707 7.04248 3.15723 6.19775 3.15723 5.1626C3.15723 4.12744 3.99707 3.28271 5.03711 3.28271C6.07227 3.28271 6.91699 4.12744 6.91699 5.1626C6.91699 6.20264 6.07715 7.04248 5.03711 7.04248V7.04248ZM18.8115 18.9077H15.5693V13.8296C15.5693 12.6187 15.5449 11.061 13.8848 11.061C12.1953 11.061 11.9365 12.3794 11.9365 13.7417V18.9077H8.69434V8.46826H11.8047V9.89404H11.8486C12.2832 9.07373 13.3428 8.20947 14.9199 8.20947C18.2012 8.20947 18.8115 10.3726 18.8115 13.1851V18.9077V18.9077Z" fill="black"/>
</svg>
