<svg width="51" height="50" viewBox="0 0 51 50" fill="none" xmlns="http://www.w3.org/2000/svg">
<path fill-rule="evenodd" clip-rule="evenodd" d="M14.6973 10.7266C14.2834 10.7253 13.8711 10.7778 13.4707 10.8828V10.9375H13.5301C13.8168 11.3704 14.1365 11.7804 14.4863 12.1641C14.727 12.6422 14.9363 13.1188 15.1754 13.5969L15.2348 13.536C15.4567 13.3598 15.6305 13.1302 15.7397 12.8688C15.849 12.6073 15.8903 12.3224 15.8598 12.0406C15.7289 11.8389 15.6089 11.6302 15.5004 11.4156C15.3207 11.1172 14.9316 10.9672 14.6926 10.7281" fill="#5D87A1"/>
<path fill-rule="evenodd" clip-rule="evenodd" d="M44.3761 36.8016C42.4052 36.6631 40.4274 36.9487 38.5761 37.6391C38.1277 37.8188 37.4121 37.8188 37.3496 38.386C37.5902 38.625 37.6183 39.011 37.8293 39.3438C38.2385 40.0367 38.7645 40.6536 39.3839 41.1672C40.0089 41.6453 40.6339 42.1219 41.298 42.5407C42.4621 43.261 43.7793 43.6782 44.9136 44.3953C45.573 44.8141 46.2293 45.3516 46.8886 45.8016C47.2168 46.0407 47.4246 46.4266 47.8433 46.5828V46.4922C47.7203 46.1602 47.5681 45.8396 47.3886 45.5344C47.0902 45.2375 46.7902 44.9672 46.4902 44.6688C45.6137 43.5099 44.5652 42.4918 43.3808 41.65C42.423 40.9907 40.3293 40.0875 39.9433 38.9938L39.8824 38.9328C40.5832 38.8335 41.2739 38.6725 41.9465 38.4516C42.9621 38.1828 43.8886 38.2438 44.9339 37.9828C45.4136 37.8625 46.2808 37.5641 46.2808 37.5641V37.0953C45.7465 36.5641 45.3636 35.8532 44.8011 35.3516C43.2708 34.0157 41.64 32.7997 39.923 31.7141C39.0058 31.1219 37.823 30.7407 36.8465 30.236C36.4933 30.0578 35.909 29.9703 35.6949 29.6735C35.2092 28.9609 34.8026 28.1976 34.4824 27.3969C33.6082 25.7138 32.7998 23.9974 32.0589 22.2516C31.6224 21.0997 31.119 19.9744 30.5511 18.8813C27.811 14.2226 23.8559 10.3966 19.109 7.81253C17.9112 7.23277 16.6377 6.82459 15.3261 6.60003C14.5855 6.56878 13.848 6.51097 13.109 6.48284C12.6319 6.17029 12.1781 5.82354 11.7511 5.44534C10.0605 4.37503 5.71676 2.07503 4.47301 5.12034C3.67614 7.04378 5.65739 8.9344 6.33708 9.91097C6.91019 10.5995 7.41516 11.3421 7.84489 12.1282C8.0527 12.6313 8.11208 13.1641 8.31364 13.6907C8.74736 15.0424 9.26236 16.3667 9.85583 17.6563C10.1732 18.2937 10.5389 18.9059 10.9496 19.4875C11.1886 19.8141 11.6011 19.9563 11.6902 20.4953C11.3625 21.1997 11.1333 21.9457 11.009 22.7125C10.4925 24.3436 10.3024 26.0605 10.4496 27.7651C10.5967 29.4696 11.0783 31.1285 11.8668 32.6469C12.3355 33.386 13.4636 35.0125 14.9715 34.3907C16.3011 33.8594 16.0058 32.1735 16.3902 30.6969C16.4777 30.3391 16.4199 30.1047 16.5965 29.8688V30.1563C16.5965 30.1563 17.3511 31.8141 17.7261 32.6563C18.746 34.2016 20.0128 35.5688 21.4761 36.7032C22.055 37.2085 22.5213 37.8297 22.8449 38.5266V39.0625H23.5121C23.4982 38.8209 23.4312 38.5853 23.3159 38.3725C23.2006 38.1596 23.0397 37.9749 22.8449 37.8313C22.2978 37.2681 21.7967 36.662 21.3465 36.0188C20.1234 34.2769 19.0448 32.438 18.1215 30.5203C17.6527 29.5828 17.2574 28.5547 16.8824 27.6188C16.7105 27.2578 16.7105 26.7125 16.4215 26.525C15.8877 27.1565 15.4245 27.8445 15.0402 28.5766C14.5736 30.0563 14.3021 31.5906 14.2324 33.1407C14.1183 33.1719 14.1746 33.1407 14.1183 33.2C13.198 32.9578 12.8808 31.9625 12.534 31.1188C11.6379 28.5165 11.5475 25.7045 12.2746 23.05C12.4746 22.4172 13.3418 20.4235 12.9949 19.8188C12.8215 19.2422 12.2449 18.9125 11.9293 18.4578C11.5263 17.8462 11.1796 17.1992 10.8933 16.525C10.2074 14.8438 9.86051 12.9688 9.11364 11.275C8.7002 10.4604 8.2188 9.68216 7.67458 8.94847C7.07257 8.21555 6.54154 7.42712 6.08864 6.59378C5.94489 6.26097 5.74333 5.71722 5.97301 5.35472C5.98851 5.25402 6.0364 5.16112 6.10942 5.09007C6.18244 5.01903 6.27662 4.9737 6.3777 4.96097C6.74958 4.62972 7.81676 5.05159 8.1902 5.23284C9.19388 5.62797 10.1499 6.1348 11.0402 6.74378C11.4433 7.0469 12.3933 7.81409 12.3933 7.81409H12.6746C13.6308 8.0219 14.7058 7.8719 15.6058 8.14222C17.1212 8.64736 18.5673 9.34025 19.9105 10.2047C23.8694 12.7284 27.0877 16.2573 29.2371 20.4313C29.5965 21.1172 29.748 21.7469 30.0761 22.4625C30.7011 23.9313 31.4824 25.4313 32.1074 26.8594C32.6588 28.2723 33.3718 29.6167 34.2324 30.8657C34.6793 31.4907 36.4746 31.8219 37.2824 32.15C37.9839 32.3927 38.6723 32.6717 39.3449 32.986C40.3621 33.611 41.3761 34.3313 42.3339 35.0172C42.8105 35.3766 44.3058 36.1235 44.3964 36.7219" fill="#00758F"/>
</svg>
