<svg width="45" height="50" viewBox="0 0 45 50" fill="none" xmlns="http://www.w3.org/2000/svg">
<g clip-path="url(#clip0_4746_279098)">
<path d="M22.8192 49.9073C22.1314 49.9073 21.4896 49.7239 20.8936 49.403L14.7955 45.7808C13.8785 45.2765 14.337 45.0931 14.6121 45.0014C15.85 44.5888 16.0792 44.4971 17.3629 43.7634C17.5006 43.6717 17.684 43.7175 17.8214 43.8092L22.4982 46.6061C22.6816 46.6978 22.9109 46.6978 23.0484 46.6061L41.3425 36.0149C41.5259 35.9232 41.6176 35.7398 41.6176 35.5106V14.3737C41.6176 14.1445 41.5259 13.9611 41.3425 13.8694L23.0484 3.32391C22.865 3.23222 22.6358 3.23222 22.4982 3.32391L4.20411 13.8696C4.02071 13.9613 3.92902 14.1905 3.92902 14.3739V35.5106C3.92902 35.694 4.02071 35.9232 4.20411 36.0149L9.20186 38.9033C11.907 40.2788 13.6032 38.6741 13.6032 37.0694V16.2076C13.6032 15.9326 13.8327 15.6575 14.1536 15.6575H16.492C16.7671 15.6575 17.0422 15.8867 17.0422 16.2076V37.0692C17.0422 40.6914 15.0705 42.8004 11.6318 42.8004C10.5773 42.8004 9.75203 42.8004 7.41379 41.6542L2.59943 38.9033C1.40739 38.2154 0.673828 36.9317 0.673828 35.5563V14.4198C0.673828 13.0443 1.40739 11.7606 2.59943 11.0727L20.8936 0.481523C22.0397 -0.160345 23.5986 -0.160345 24.7448 0.481523L43.0389 11.0727C44.2309 11.7604 44.9645 13.0442 44.9645 14.4198V35.5564C44.9645 36.9319 44.2309 38.2156 43.0389 38.9033L24.7448 49.4948C24.1487 49.7699 23.461 49.9075 22.8192 49.9075V49.9073ZM28.4586 35.3729C20.4349 35.3729 18.7844 31.7051 18.7844 28.5872C18.7844 28.3121 19.0136 28.0371 19.3346 28.0371H21.7186C21.9937 28.0371 22.2231 28.2204 22.2231 28.4955C22.5899 30.9255 23.6444 32.1177 28.5044 32.1177C32.3558 32.1177 34.0065 31.2466 34.0065 29.1834C34.0065 27.9912 33.5481 27.1201 27.5416 26.5239C22.5441 26.0196 19.4263 24.9192 19.4263 20.9305C19.4263 17.2165 22.5439 15.0158 27.7709 15.0158C33.6396 15.0158 36.5282 17.0331 36.8949 21.4346C36.8949 21.5722 36.8491 21.7097 36.7574 21.8473C36.6657 21.939 36.5282 22.0307 36.3906 22.0307H34.0065C33.7771 22.0307 33.548 21.8473 33.502 21.618C32.9519 19.0964 31.5306 18.2711 27.7709 18.2711C23.5529 18.2711 23.0484 19.7383 23.0484 20.8386C23.0484 22.1684 23.6444 22.5808 29.3297 23.3144C34.9693 24.048 37.6285 25.1026 37.6285 29.0457C37.5827 33.0805 34.2816 35.3729 28.4586 35.3729V35.3729Z" fill="#539E43"/>
</g>
<defs>
<clipPath id="clip0_4746_279098">
<rect width="44.3" height="50" fill="white" transform="translate(0.669922)"/>
</clipPath>
</defs>
</svg>
