<svg width="67" height="50" viewBox="0 0 67 50" fill="none" xmlns="http://www.w3.org/2000/svg">
<g clip-path="url(#clip0_4746_279068)">
<path d="M57.3658 28.7797C55.0466 28.7917 53.0307 29.3503 51.3429 30.1761C50.7234 28.9495 50.1041 27.8568 49.995 27.0552C49.8734 26.1203 49.7278 25.5495 49.8734 24.4323C50.0192 23.3151 50.675 21.7243 50.6627 21.6029C50.6507 21.4815 50.5169 20.9107 49.1812 20.8987C47.8455 20.8865 46.6919 21.1537 46.5583 21.5058C46.4247 21.8578 46.1698 22.6594 45.9997 23.4849C45.769 24.6995 43.3283 29.0344 41.932 31.3052C41.4825 30.419 41.094 29.6417 41.0088 29.0224C40.8875 28.0875 40.7416 27.5167 40.8875 26.3995C41.0333 25.2823 41.689 23.6917 41.6768 23.5701C41.6645 23.4487 41.5309 22.8779 40.1953 22.8659C38.8593 22.8537 37.7057 23.1209 37.5724 23.4729C37.4388 23.8253 37.2929 24.6508 37.0138 25.4524C36.7343 26.2539 33.4921 33.4914 32.6421 35.3612C32.2986 36.118 31.9383 36.8671 31.5614 37.6078C31.5614 37.6078 31.5492 37.6443 31.5127 37.705C31.3943 37.9372 31.273 38.168 31.1487 38.3972V38.4091C30.9664 38.7373 30.7721 39.0407 30.675 39.0407C30.602 39.0407 30.4685 38.1664 30.6992 36.9763C31.1849 34.4628 32.3385 30.5526 32.3265 30.419C32.3265 30.3461 32.545 29.6662 31.5737 29.3138C30.6263 28.9618 30.2864 29.5446 30.2013 29.5446C30.1164 29.5446 30.0554 29.7511 30.0554 29.7511C30.0554 29.7511 31.1122 25.3552 28.0398 25.3552C26.1213 25.3552 23.4739 27.456 22.1625 29.3503C20.6716 30.1616 19.182 30.9752 17.6937 31.7912C16.9776 32.192 16.2367 32.5927 15.5445 32.969C15.4958 32.9206 15.4474 32.8597 15.3987 32.8112C11.6828 28.8404 4.80986 26.0352 5.10126 20.7045C5.21064 18.7615 5.87835 13.6612 18.301 7.46826C28.5255 2.42868 36.6617 3.82503 38.0703 6.92165C40.0859 11.342 33.7109 19.5508 23.1461 20.7407C19.1145 21.1901 17.0015 19.6357 16.4674 19.0529C15.9088 18.4456 15.8237 18.4091 15.6171 18.5308C15.2773 18.7131 15.4958 19.2594 15.6171 19.575C15.933 20.4006 17.2323 21.8578 19.4302 22.5745C21.3731 23.2058 26.0968 23.5581 31.8164 21.3479C38.2158 18.8706 43.219 11.9854 41.7497 6.21748C40.2802 0.364354 30.5656 -1.56637 21.3731 1.70003C15.9088 3.64326 9.98277 6.70316 5.72053 10.6862C0.656733 15.4219 -0.14483 19.5386 0.183035 21.2631C1.36116 27.3831 9.80074 31.3662 13.1765 34.317C13.0065 34.4141 12.8484 34.4992 12.7151 34.5722C11.027 35.4099 4.59111 38.7735 2.98824 42.3315C1.16689 46.363 3.27991 49.2534 4.67626 49.6417C9.01142 50.844 13.4679 48.6826 15.8601 45.1123C18.2523 41.5422 17.9609 36.9034 16.856 34.7784C16.8437 34.7542 16.8317 34.7297 16.8073 34.7055C17.2445 34.4505 17.6937 34.1834 18.131 33.9284C18.9346 33.4534 19.7484 32.9958 20.5718 32.556C20.1588 33.6854 19.8552 35.0334 19.7096 36.9763C19.5273 39.2594 20.4622 42.2222 21.6888 43.3878C22.2354 43.8982 22.8789 43.9102 23.2919 43.9102C24.7247 43.9102 25.3685 42.7201 26.0849 41.3115C26.9591 39.5873 27.7484 37.5836 27.7484 37.5836C27.7484 37.5836 26.7648 42.9995 29.4364 42.9995C30.4078 42.9995 31.3914 41.7365 31.8286 41.093V41.105C31.8286 41.105 31.8528 41.0685 31.9015 40.9836C31.9987 40.8258 32.0593 40.7284 32.0593 40.7284V40.7045C32.4479 40.0242 33.3224 38.4821 34.6216 35.9198C36.2974 32.617 37.9125 28.4883 37.9125 28.4883C37.9125 28.4883 38.0583 29.4961 38.5559 31.1719C38.8476 32.1555 39.4544 33.2362 39.9403 34.2805C39.5518 34.8271 39.3088 35.1305 39.3088 35.1305L39.3211 35.1427C39.0052 35.5555 38.6653 36.0047 38.2888 36.4422C36.9651 38.0206 35.3867 39.8302 35.1679 40.3521C34.9127 40.9714 34.9737 41.4209 35.4596 41.7852C35.8117 42.0524 36.4429 42.0886 37.0867 42.0524C38.2768 41.9672 39.1145 41.6758 39.5273 41.4938C40.1711 41.263 40.9239 40.9107 41.6281 40.3886C42.9276 39.4292 43.7166 38.0571 43.644 36.2479C43.6075 35.2521 43.2796 34.2563 42.8789 33.3211C43.0005 33.1513 43.1096 32.9813 43.2312 32.8112C45.2833 29.8118 46.8742 26.5209 46.8742 26.5209C46.8742 26.5209 47.02 27.5287 47.5177 29.2047C47.7606 30.0547 48.2586 30.9776 48.6955 31.8761C46.7648 33.4427 45.5747 35.2641 45.1497 36.4542C44.3849 38.6644 44.9796 39.6599 46.1091 39.8907C46.619 40 47.3476 39.7571 47.882 39.5263C48.5619 39.3078 49.3635 38.9315 50.1286 38.3727C51.4281 37.4136 52.6786 36.0776 52.6057 34.2685C52.5692 33.4427 52.3507 32.6289 52.0471 31.8396C53.6864 31.1599 55.7994 30.7834 58.495 31.099C64.2755 31.7789 65.4169 35.3854 65.1981 36.9037C64.9796 38.4214 63.7653 39.2472 63.3648 39.5021C62.9638 39.7573 62.8304 39.8422 62.8669 40.0242C62.9153 40.2914 63.1096 40.2795 63.4497 40.2308C63.9234 40.1459 66.4856 39.0042 66.5948 36.2112C66.777 32.6412 63.3768 28.7433 57.3658 28.7797V28.7797ZM12.7757 43.8131C10.857 45.9016 8.18564 46.6909 7.03199 46.0232C5.79345 45.3065 6.27913 42.2222 8.63486 40.0123C10.0677 38.6644 11.9135 37.4133 13.1401 36.6485C13.4192 36.4784 13.8323 36.2357 14.3302 35.9321C14.4151 35.8834 14.4638 35.8591 14.4638 35.8591L14.7552 35.6769C15.6171 38.8341 14.7916 41.6151 12.7757 43.8131V43.8131ZM26.7406 34.317C26.0726 35.9443 24.6763 40.1094 23.8263 39.8787C23.0976 39.6844 22.6481 36.5271 23.6804 33.4063C24.2026 31.8396 25.3075 29.9696 25.9513 29.2412C26.9955 28.0753 28.1492 27.6865 28.4283 28.1604C28.7807 28.7797 27.1533 33.2969 26.7406 34.317V34.317ZM38.2645 39.83C37.9851 39.9758 37.7182 40.0729 37.5966 40C37.5117 39.9513 37.7182 39.7571 37.7182 39.7571C37.7182 39.7571 39.1632 38.2029 39.7338 37.4985C40.0619 37.0857 40.4502 36.6 40.8632 36.0534V36.2112C40.8632 38.0693 39.0658 39.3201 38.2643 39.83H38.2645ZM47.1533 37.8021C46.9468 37.6563 46.9833 37.1706 47.6755 35.6526C47.9427 35.0576 48.5739 34.062 49.6549 33.1026C49.7763 33.4912 49.8614 33.8677 49.8492 34.2198C49.8369 36.5636 48.1614 37.4378 47.1533 37.8021Z" fill="#CD6799"/>
</g>
<defs>
<clipPath id="clip0_4746_279068">
<rect width="66.67" height="50" fill="white"/>
</clipPath>
</defs>
</svg>
