<svg width="51" height="50" viewBox="0 0 51 50" fill="none" xmlns="http://www.w3.org/2000/svg">
<g clip-path="url(#clip0_4746_279111)">
<path d="M8.57701 7.00751C18.4559 -2.56261 34.2516 -2.30538 43.8217 7.62489C44.9022 6.18427 45.8284 4.58935 46.4973 2.94286C49.636 12.513 51.5397 20.5395 50.8192 26.7651C50.459 32.0132 48.401 37.0556 45.0051 41.0688C36.1555 51.5651 20.411 52.9028 9.9147 44.0532L9.71392 43.8745L9.70318 43.8675C9.67016 43.8444 9.63773 43.8205 9.60591 43.7958C9.51021 43.7214 9.4233 43.6403 9.34498 43.5536L9.31685 43.5216L8.98873 43.23C8.66841 42.9556 8.3483 42.6811 8.06431 42.3706L7.95963 42.2522C-1.61069 32.3733 -1.3019 16.5776 8.57681 7.00751H8.57701ZM12.2813 40.503C11.3551 39.7827 10.0174 39.8854 9.29693 40.8116C8.66373 41.6261 8.66685 42.7587 9.3065 43.5098L9.31666 43.5216L9.71373 43.8745L9.75279 43.9011C10.652 44.4925 11.8622 44.3702 12.5522 43.5343L12.5901 43.4872C13.3104 42.561 13.1561 41.2233 12.2815 40.5028L12.2813 40.503ZM46.2403 5.51532C43.6674 10.9179 37.2872 15.0341 31.7819 16.3204C26.5852 17.5552 22.0573 16.5263 17.2723 18.3784C6.36451 22.5462 6.57037 35.512 12.5387 38.4448L12.8989 38.6507C12.8989 38.6507 17.2102 37.7934 21.4735 36.6614L21.8387 36.5638C23.5415 36.1048 25.2167 35.6048 26.5852 35.1005C33.6856 32.4765 41.5065 25.9934 44.079 18.4813C42.7413 26.302 36.001 33.8655 29.2606 37.313C25.659 39.1651 22.8807 39.5766 16.9637 41.6349C16.2434 41.8921 15.6774 42.1495 15.6774 42.1495L15.8938 42.1202L16.0376 42.1016L16.1807 42.0837C17.4874 41.9216 18.6616 41.8407 18.6616 41.8407C27.0483 41.429 40.2202 44.2075 46.343 36.0266C52.6202 27.6913 49.1213 14.2108 46.2401 5.51532H46.2403Z" fill="#6DB33F"/>
<path d="M12.2808 40.5031C13.1556 41.2234 13.3099 42.5611 12.5894 43.4873C11.8693 44.4134 10.5314 44.5164 9.60525 43.7959C8.67927 43.0755 8.57634 41.7378 9.29666 40.8117C10.017 39.8855 11.3547 39.7828 12.281 40.5031H12.2808ZM46.2396 5.51538C49.1209 14.2109 52.6197 27.6914 46.3426 36.0267C40.2195 44.2076 27.0478 41.4291 18.6611 41.8408C18.6611 41.8408 17.4869 41.9218 16.1802 42.0837L16.0371 42.1017C15.9176 42.1169 15.7972 42.133 15.6769 42.1496C15.6769 42.1496 16.2429 41.8921 16.9633 41.6349C22.8802 39.5769 25.6586 39.1652 29.2601 37.313C36.0006 33.8658 42.7408 26.3021 44.0785 18.4814C41.506 25.9935 33.6851 32.4765 26.5847 35.1005C21.6969 36.9013 12.8984 38.6507 12.8984 38.6507L12.5383 38.4449C6.5699 35.5121 6.36404 22.5462 17.2719 18.3785C22.057 16.5263 26.5847 17.5552 31.7816 16.3205C37.2869 15.0341 43.667 10.9181 46.2396 5.51538V5.51538Z" fill="white"/>
</g>
<defs>
<clipPath id="clip0_4746_279111">
<rect width="50" height="50" fill="white" transform="translate(0.970703)"/>
</clipPath>
</defs>
</svg>
