<svg width="51" height="50" viewBox="0 0 51 50" fill="none" xmlns="http://www.w3.org/2000/svg">
<g clip-path="url(#clip0_4746_279095)">
<path d="M4.57617 0H46.7637C48.9211 0 50.6699 1.74883 50.6699 3.90625V46.0938C50.6699 48.2512 48.9211 50 46.7637 50H4.57617C2.41875 50 0.669922 48.2512 0.669922 46.0938V3.90625C0.669922 1.74883 2.41875 0 4.57617 0Z" fill="#3178C6"/>
<path d="M30.068 39.1553V44.5498C30.9453 44.9994 31.983 45.3365 33.1809 45.5613C34.3787 45.7861 35.6412 45.8984 36.9686 45.8984C38.2619 45.8984 39.4908 45.7748 40.6549 45.5275C41.8189 45.2803 42.8398 44.8729 43.717 44.3055C44.5943 43.7379 45.2889 42.9961 45.8008 42.0801C46.3125 41.1643 46.5684 40.032 46.5684 38.6834C46.5684 37.7057 46.4221 36.8486 46.1297 36.1125C45.8405 35.3814 45.4106 34.7141 44.8643 34.1486C44.3133 33.5754 43.6523 33.0613 42.882 32.6061C42.1115 32.151 41.2426 31.7211 40.2752 31.3166C39.5666 31.0242 38.9313 30.7406 38.3688 30.4652C37.8064 30.1898 37.3283 29.909 36.9348 29.6223C36.541 29.3357 36.2373 29.0322 36.0236 28.7119C35.81 28.3916 35.7031 28.0293 35.7031 27.6246C35.7031 27.2537 35.7986 26.9195 35.9898 26.6217C36.1811 26.3238 36.4512 26.0682 36.7998 25.8547C37.1484 25.641 37.5758 25.4754 38.082 25.3572C38.5881 25.2393 39.1506 25.1803 39.7691 25.1803C40.2191 25.1803 40.6943 25.2141 41.1947 25.2814C41.6953 25.3488 42.1986 25.4527 42.7049 25.5934C43.2095 25.7333 43.703 25.9108 44.1811 26.1244C44.6446 26.3298 45.088 26.5781 45.5055 26.866V21.8256C44.6844 21.5109 43.7873 21.2777 42.8145 21.126C41.8416 20.9742 40.7252 20.8984 39.4654 20.8984C38.1832 20.8984 36.9686 21.0361 35.8213 21.3115C34.674 21.5867 33.6645 22.0166 32.7928 22.601C31.9211 23.1855 31.2322 23.9301 30.726 24.8348C30.2199 25.7395 29.9668 26.8211 29.9668 28.0799C29.9668 29.6869 30.4307 31.058 31.3588 32.1932C32.2867 33.3281 33.6953 34.2891 35.585 35.0758C36.2825 35.3599 36.9744 35.6578 37.6602 35.9693C38.3014 36.2615 38.8553 36.5648 39.3221 36.8795C39.7889 37.1941 40.1572 37.5369 40.4271 37.9078C40.6971 38.2787 40.832 38.7002 40.832 39.1723C40.8343 39.512 40.747 39.8463 40.5789 40.1416C40.4104 40.4393 40.1543 40.6979 39.8113 40.917C39.4684 41.1361 39.0408 41.3074 38.5291 41.4311C38.0174 41.5547 37.4184 41.6166 36.7322 41.6166C35.5625 41.6166 34.4041 41.4115 33.2568 41.0012C32.1094 40.591 31.0465 39.9758 30.068 39.1553V39.1553ZM21.0766 25.7309H28.0137V21.2891H8.67773V25.7309H15.5811V45.5078H21.0766V25.7309Z" fill="white"/>
</g>
<defs>
<clipPath id="clip0_4746_279095">
<rect width="50" height="50" fill="white" transform="translate(0.669922)"/>
</clipPath>
</defs>
</svg>
