<svg width="51" height="50" viewBox="0 0 51 50" fill="none" xmlns="http://www.w3.org/2000/svg">
<g clip-path="url(#clip0_4746_279068)">
<path d="M48.4556 5.28994L38.1127 0.310022C37.5286 0.0287915 36.8715 -0.063928 36.2323 0.0446938C35.5932 0.153316 35.0036 0.457908 34.5452 0.916321L0.686141 31.7878C-0.224489 32.6183 -0.223308 34.052 0.688503 34.8811L3.45425 37.3953C3.81556 37.7238 4.28045 37.9155 4.7683 37.9372C5.25616 37.959 5.73624 37.8093 6.12531 37.5142L46.8993 6.58187C48.2672 5.54427 50.232 6.51986 50.232 8.23679V8.11671C50.232 7.52611 50.0653 6.94749 49.751 6.44743C49.4368 5.94736 48.9878 5.54615 48.4556 5.28994V5.28994Z" fill="#0065A9"/>
<path d="M48.4556 44.6488L38.1127 49.6287C37.5286 49.9099 36.8715 50.0026 36.2324 49.8939C35.5932 49.7853 35.0037 49.4808 34.5452 49.0224L0.686141 18.1509C-0.224489 17.3206 -0.223308 15.8868 0.688503 15.0578L3.45425 12.5435C3.81559 12.215 4.28048 12.0233 4.76834 12.0016C5.2562 11.9799 5.73626 12.1296 6.12531 12.4248L46.8993 43.3568C48.2672 44.3944 50.232 43.4189 50.232 41.7017V41.822C50.232 42.4126 50.0653 42.9912 49.751 43.4913C49.4368 43.9913 48.9878 44.3925 48.4556 44.6488V44.6488Z" fill="#007ACC"/>
<path d="M38.0796 49.6327C37.4954 49.9137 36.8382 50.0063 36.199 49.8976C35.5598 49.7888 34.9702 49.4842 34.5117 49.0258C35.6694 50.1833 37.6491 49.3634 37.6491 47.726V2.21911C37.6491 0.581705 35.6694 -0.238177 34.5117 0.9195C34.9702 0.461051 35.5598 0.156381 36.199 0.0476238C36.8382 -0.0611337 37.4953 0.0313949 38.0796 0.312414L48.4208 5.28545C48.9532 5.54151 49.4026 5.94274 49.717 6.44294C50.0315 6.94313 50.1984 7.52197 50.1983 8.11281V41.8327C50.1983 43.0384 49.5074 44.1376 48.4208 44.6601L38.0796 49.6329V49.6327Z" fill="#1F9CF0"/>
<path d="M35.5999 49.7254C35.9994 49.8811 36.4266 49.953 36.855 49.9365C37.2834 49.92 37.7038 49.8156 38.0901 49.6297L48.4247 44.6567C48.9571 44.4005 49.4062 43.9992 49.7205 43.499C50.0349 42.9988 50.2016 42.4201 50.2015 41.8293V8.10962C50.2016 7.5189 50.0349 6.94015 49.7206 6.43998C49.4063 5.9398 48.9572 5.5385 48.4249 5.28226L38.0899 0.309031C37.506 0.0280726 36.8491 -0.0644252 36.2103 0.0443387C35.5715 0.153103 34.9822 0.45775 34.5242 0.916117L14.7395 18.9665L6.1214 12.4248C5.73266 12.1297 5.25288 11.98 4.7653 12.0017C4.27773 12.0234 3.81313 12.215 3.45211 12.5435L0.688134 15.0579C-0.223283 15.8868 -0.224267 17.3206 0.685772 18.151L8.15959 24.9695L0.685772 31.7878C-0.224267 32.6183 -0.223283 34.0519 0.688134 34.8811L3.45211 37.3953C3.8131 37.7237 4.27769 37.9154 4.76527 37.9371C5.25284 37.9589 5.73264 37.8092 6.1214 37.5141L14.7395 30.9722L34.5242 49.0224C34.8301 49.3288 35.1965 49.5682 35.5999 49.7254V49.7254ZM37.6598 13.5738L22.6476 24.9695L37.6598 36.3647V13.574V13.5738Z" fill="url(#paint0_linear_4746_279068)" fill-opacity="0.25"/>
</g>
<defs>
<linearGradient id="paint0_linear_4746_279068" x1="25.1027" y1="0" x2="25.1027" y2="49.9388" gradientUnits="userSpaceOnUse">
<stop stop-color="white"/>
<stop offset="1" stop-color="white" stop-opacity="0"/>
</linearGradient>
<clipPath id="clip0_4746_279068">
<rect width="50.4" height="50" fill="white"/>
</clipPath>
</defs>
</svg>
